<svg width="62" height="67" viewBox="0 0 62 67" fill="none" xmlns="http://www.w3.org/2000/svg">
<g clip-path="url(#clip0)">
<path d="M60.2508 43.3203V24.6745H61.0349C61.5657 24.6745 62 24.2057 62 23.6328C62 23.0599 61.5657 22.5911 61.0349 22.5911H60.2508V20.0781C60.2508 19.5052 59.8165 19.0364 59.2857 19.0364C58.7549 19.0364 58.3207 19.5052 58.3207 20.0781V22.5911H57.5365C57.0057 22.5911 56.5715 23.0599 56.5715 23.6328C56.5715 24.2057 57.0057 24.6745 57.5365 24.6745H58.3207V43.3203C57.3315 43.737 56.6318 44.7786 56.6318 45.9896V47.0182H53.8693C53.7486 47.0182 53.6159 47.0182 53.4953 47.0182V28.5547H54.0019C54.5327 28.5547 54.967 28.0859 54.967 27.513C54.967 26.9401 54.5327 26.4713 54.0019 26.4713H53.4953V23.9713C53.4953 23.3984 53.061 22.9297 52.5302 22.9297C51.9994 22.9297 51.5651 23.3984 51.5651 23.9713V26.4713H51.0464C50.5156 26.4713 50.0813 26.9401 50.0813 27.513C50.0813 28.0859 50.5156 28.5547 51.0464 28.5547H51.5651V46.9401C48.6096 46.7448 45.6782 46.1719 42.8312 45.2344C42.3004 44.4922 41.4681 44.0104 40.5392 44.0104H38.5005L34.1818 3.09895C34.0129 1.43228 32.7583 0.15624 31.2383 0.0390523V0.0260315C31.2021 0.0260315 31.1538 0.0260315 31.1176 0.0260315C31.0815 0.0260315 31.0332 0.0260315 30.997 0.0260315V0.0390523C29.477 0.15624 28.2224 1.43228 28.0535 3.09895L23.7348 44.0234H21.6961C20.7672 44.0234 19.9349 44.5052 19.4041 45.2474C16.5571 46.1849 13.6257 46.7578 10.6701 46.9531V28.5547H11.1889C11.7197 28.5547 12.1539 28.0859 12.1539 27.513C12.1539 26.9401 11.7197 26.4713 11.1889 26.4713H10.6701V23.9713C10.6701 23.3984 10.2359 22.9297 9.70507 22.9297C9.17428 22.9297 8.74 23.3984 8.74 23.9713V26.4713H8.23334C7.70255 26.4713 7.26826 26.9401 7.26826 27.513C7.26826 28.0859 7.70255 28.5547 8.23334 28.5547H8.74V47.0182C8.61937 47.0182 8.48667 47.0182 8.36604 47.0182H5.60351V45.9896C5.60351 44.7786 4.90383 43.737 3.91463 43.3203V24.6745H4.69876C5.22955 24.6745 5.66383 24.2057 5.66383 23.6328C5.66383 23.0599 5.22955 22.5911 4.69876 22.5911H3.91463V20.0781C3.91463 19.5052 3.48035 19.0364 2.94956 19.0364C2.41877 19.0364 1.98449 19.5052 1.98449 20.0781V22.5911H1.20036C0.669574 22.5911 0.235291 23.0599 0.235291 23.6328C0.235291 24.2057 0.669574 24.6745 1.20036 24.6745H1.98449V43.3203C0.995286 43.737 0.295608 44.7786 0.295608 45.9896V57.9687C0.295608 59.5443 1.48989 60.8333 2.94956 60.8333C3.99908 60.8333 4.9159 60.1693 5.35018 59.2057L11.2371 60.5859C14.6752 61.3932 18.2339 61.8229 21.8167 61.875V65.612C21.8167 66.1849 22.251 66.6536 22.7818 66.6536C23.3126 66.6536 23.7469 66.1849 23.7469 65.612V62.3958L24.3742 62.6823C26.4853 63.6458 28.705 64.1536 30.997 64.1797C31.0332 64.1797 31.0815 64.1797 31.1176 64.1797C31.1538 64.1797 31.2021 64.1797 31.2383 64.1797C33.5303 64.1406 35.7621 63.6458 37.8611 62.6823L38.4884 62.3958V65.612C38.4884 66.1849 38.9227 66.6536 39.4535 66.6536C39.9843 66.6536 40.4185 66.1849 40.4185 65.612V61.8489C44.1099 61.7708 47.7893 61.2891 51.3721 60.3906L56.8127 59.0234C57.1988 60.0781 58.1638 60.8333 59.2737 60.8333C60.7333 60.8333 61.9276 59.5443 61.9276 57.9687V45.9896C61.9397 44.7786 61.24 43.737 60.2508 43.3203ZM41.5042 47.1484V53.6198C41.5042 54.8437 40.5874 55.8333 39.4535 55.8333C38.3195 55.8333 37.4027 54.8437 37.4027 53.6198V47.1484C37.4027 46.5755 37.837 46.1068 38.3678 46.1068H40.5392C41.07 46.1068 41.5042 46.5755 41.5042 47.1484ZM31.1176 2.10936C31.7088 2.17447 32.2034 2.66926 32.2757 3.33332L32.8789 9.04947C32.3722 8.85416 31.7811 8.69791 31.1297 8.69791C30.4662 8.69791 29.8751 8.84114 29.3805 9.02343L29.9837 3.33332C30.0319 2.68228 30.5265 2.17447 31.1176 2.10936ZM20.731 47.1484C20.731 46.5755 21.1653 46.1068 21.6961 46.1068H23.8675C24.3983 46.1068 24.8326 46.5755 24.8326 47.1484V53.6198C24.8326 54.8437 23.9158 55.8333 22.7818 55.8333C21.6479 55.8333 20.731 54.8437 20.731 53.6198V47.1484ZM3.67336 57.9687C3.67336 58.3984 3.34765 58.75 2.94956 58.75C2.55147 58.75 2.22575 58.3984 2.22575 57.9687V45.9896C2.22575 45.5599 2.55147 45.2083 2.94956 45.2083C3.34765 45.2083 3.67336 45.5599 3.67336 45.9896V57.9687ZM5.60351 57.1224V49.1016H8.36604C8.75206 49.1016 9.13809 49.0885 9.52412 49.0755C9.58444 49.0885 9.64476 49.1016 9.70507 49.1016C9.78952 49.1016 9.87396 49.0885 9.94634 49.0625C12.9381 48.9323 15.9057 48.4375 18.8009 47.5911V53.6068C18.8009 55.612 20.0917 57.3047 21.8167 57.7734V59.7656C18.3787 59.7266 14.9527 59.3099 11.6473 58.5286L5.60351 57.1224ZM37.1132 60.7422C35.2071 61.6146 33.1926 62.0573 31.1176 62.0833C29.0427 62.0703 27.0281 61.6146 25.1221 60.7422L23.7469 60.1172V57.7864C25.472 57.3177 26.7627 55.625 26.7627 53.6198V47.1484C26.7627 46.1328 26.3043 45.2213 25.6047 44.6484L29.1031 11.4974C29.3202 11.3151 30.0802 10.7812 31.1176 10.7812C32.0586 10.7812 32.8548 11.3021 33.1322 11.5104L36.6306 44.6484C35.931 45.2213 35.4725 46.1198 35.4725 47.1484V53.6198C35.4725 55.625 36.7633 57.3177 38.4884 57.7864V60.1172L37.1132 60.7422ZM50.9378 58.3594C47.4998 59.2187 43.9652 59.7005 40.4185 59.7656V57.7864C42.1436 57.3177 43.4344 55.625 43.4344 53.6198V47.6042C46.3296 48.4505 49.2972 48.9453 52.2889 49.0755C52.3613 49.1016 52.4458 49.1146 52.5302 49.1146C52.5905 49.1146 52.6508 49.1016 52.7112 49.0885C53.0972 49.1016 53.4832 49.1146 53.8693 49.1146H56.6318V56.9401L50.9378 58.3594ZM60.0095 57.9687C60.0095 58.3984 59.6838 58.75 59.2857 58.75C58.8876 58.75 58.5619 58.3984 58.5619 57.9687V45.9896C58.5619 45.5599 58.8876 45.2083 59.2857 45.2083C59.6838 45.2083 60.0095 45.5599 60.0095 45.9896V57.9687Z" fill="#111111"/>
<path d="M33.5424 27.6302C33.3856 26.3281 32.3361 25.3385 31.1177 25.3385C29.8872 25.3385 28.8497 26.3151 28.6929 27.6172L27.8123 34.401C27.6193 35.8463 27.7882 37.3568 28.2828 38.75C28.6447 39.7656 29.5615 40.4427 30.5748 40.4427H31.1297H31.6846C32.698 40.4427 33.6148 39.7656 33.9767 38.75C34.4713 37.3568 34.6281 35.8594 34.4472 34.401L33.5424 27.6302ZM32.1551 37.9948C32.0827 38.2031 31.8777 38.3594 31.6726 38.3594H31.1177H30.5627C30.3577 38.3594 30.1526 38.2161 30.0802 37.9948C29.7062 36.9271 29.5856 35.7812 29.7304 34.6875L30.611 27.8906C30.6472 27.6172 30.8643 27.4219 31.1297 27.4219C31.3831 27.4219 31.6123 27.6302 31.6485 27.9036L32.5291 34.6875C32.6618 35.7943 32.5411 36.9401 32.1551 37.9948Z" fill="#111111"/>
<path d="M31.1176 43.0078C29.5253 43.0078 28.2224 44.414 28.2224 46.1328C28.2224 47.8515 29.5253 49.2578 31.1176 49.2578C32.71 49.2578 34.0129 47.8515 34.0129 46.1328C34.0129 44.414 32.71 43.0078 31.1176 43.0078ZM31.1176 47.1744C30.5868 47.1744 30.1526 46.7057 30.1526 46.1328C30.1526 45.5599 30.5868 45.0911 31.1176 45.0911C31.6484 45.0911 32.0827 45.5599 32.0827 46.1328C32.0827 46.7057 31.6484 47.1744 31.1176 47.1744Z" fill="#111111"/>
</g>
<defs>
<clipPath id="clip0">
<rect width="61.7647" height="66.6667" fill="white" transform="translate(0.235291)"/>
</clipPath>
</defs>
</svg>
