<svg width="62" height="67" viewBox="0 0 62 67" fill="none" xmlns="http://www.w3.org/2000/svg">
<g clip-path="url(#clip0)">
<path d="M39.4112 30.9584C36.6245 31.0886 34.996 31.5964 33.9827 32.6641C32.8125 33.875 32.8125 35.4115 32.8125 36.5313V36.5703C32.8125 38.0808 32.9693 39.6433 34.0912 40.7761C35.0201 41.7136 36.3471 42.1302 38.422 42.1302C38.7839 42.1302 39.182 42.1172 39.568 42.0912C42.6683 41.9089 44.7915 41.4532 45.7686 39.7604C46.3959 38.6797 46.408 37.3516 45.8048 35.8151C45.1534 34.0443 43.9109 30.763 39.4112 30.9584ZM44.1401 38.6537C43.5731 39.6302 41.5585 39.8907 39.4594 40.0209C39.0975 40.0469 38.7477 40.0599 38.422 40.0599C36.902 40.0599 35.949 39.8125 35.4182 39.2787C34.9357 38.7839 34.7426 38.0287 34.7426 36.5834V36.5313C34.7426 35.4636 34.7788 34.7214 35.3217 34.1615C35.949 33.4974 37.276 33.1459 39.4956 33.0417C42.6442 32.8985 43.4163 34.9558 44.0436 36.5964V36.6094C44.5502 37.9375 44.2486 38.4714 44.1401 38.6537Z" fill="#111111"/>
<path d="M35.7077 62.8984C36.2385 62.8984 36.6728 62.4297 36.6728 61.8568V57.4297C36.6728 56.8568 36.2385 56.388 35.7077 56.388C35.1769 56.388 34.7426 56.8568 34.7426 57.4297V61.8568C34.7426 62.4297 35.1769 62.8984 35.7077 62.8984Z" fill="#111111"/>
<path d="M30.8823 62.8985C31.4131 62.8985 31.8474 62.4297 31.8474 61.8568V54.8255C31.8474 54.2526 31.4131 53.7839 30.8823 53.7839C30.3515 53.7839 29.9173 54.2526 29.9173 54.8255V61.8568C29.9173 62.4297 30.3515 62.8985 30.8823 62.8985Z" fill="#111111"/>
<path d="M22.3414 30.9844C17.878 30.75 16.6113 34.0573 15.9237 35.8281L16.8164 36.2318L15.9237 35.8281C15.3326 37.3776 15.3447 38.7057 15.9599 39.7735C16.6958 41.0235 17.9866 41.8568 22.1605 42.1042C22.5827 42.1302 22.9567 42.1432 23.3186 42.1432C25.4056 42.1432 26.7325 41.7266 27.6494 40.7891C28.7712 39.6432 28.9281 38.0938 28.9281 36.5833V36.5443C28.9281 35.4245 28.9281 33.888 27.77 32.6901C26.7446 31.6224 25.116 31.1146 22.3414 30.9844ZM26.9979 36.5964C26.9979 38.0417 26.8049 38.7969 26.3224 39.2917C25.8036 39.8255 24.8506 40.0729 23.3186 40.0729C23.0049 40.0729 22.6672 40.0599 22.2811 40.0339C20.1942 39.9037 18.1796 39.6563 17.6005 38.6667C17.504 38.4974 17.2024 37.9766 17.7091 36.6224C18.3846 34.8776 19.1446 32.8985 22.257 33.0677C24.4646 33.1719 25.7916 33.5235 26.4309 34.2005C26.9617 34.7474 26.9979 35.4636 26.9979 36.5573V36.5964Z" fill="#111111"/>
<path d="M26.057 62.8984C26.5878 62.8984 27.022 62.4297 27.022 61.8568V57.4297C27.022 56.8568 26.5878 56.388 26.057 56.388C25.5262 56.388 25.0919 56.8568 25.0919 57.4297V61.8568C25.0919 62.4297 25.5262 62.8984 26.057 62.8984Z" fill="#111111"/>
<path d="M59.8225 55.4245L59.7019 55.0078C58.387 50.4896 57.2048 46.5313 56.1673 43.1849C55.7089 40.7891 53.0429 27.2214 51.354 24.7083C51.3299 24.6823 51.3178 24.6563 51.2937 24.6302C51.2575 21.2318 50.7508 13.7839 47.2886 8.9271C43.4645 3.57554 37.276 2.65106 34.1878 2.5469C34.1033 2.40367 34.0189 2.26044 33.9224 2.13023L33.8259 2.00002C33.1141 1.02346 32.0405 0.463562 30.8824 0.463562C29.7243 0.463562 28.6507 1.02346 27.951 2.00002L27.8424 2.14325C27.7459 2.27346 27.6615 2.41669 27.577 2.55992C25.8761 2.612 23.5358 2.91148 21.1351 3.84898C18.3485 4.94273 16.1168 6.66148 14.4882 8.94012C11.026 13.7839 10.5193 21.2318 10.4831 24.6302C10.459 24.6563 10.447 24.6823 10.4228 24.7083C8.68569 27.2865 5.92317 41.4922 5.56127 43.3542C3.7035 49.3047 2.02669 55.1641 1.9543 55.4245C1.78542 55.9844 1.99049 56.5964 2.4489 56.9089L15.1517 65.7891C16.1288 66.4662 17.2507 66.8307 18.4209 66.8568H18.4329C18.4812 66.8568 18.5294 66.8568 18.5777 66.8568H43.1388C43.1871 66.8568 43.2353 66.8568 43.2836 66.8568H43.2956C44.4296 66.8177 45.5515 66.4531 46.5528 65.7891L59.2917 56.8958L59.3279 56.8698C59.8105 56.5443 59.9914 55.9583 59.8225 55.4245ZM16.8526 64.1745C16.4907 63.7839 16.2977 63.2761 16.2977 62.7162C16.2977 62.1563 16.5028 61.6354 16.8647 61.2318C17.6006 60.4245 18.831 60.4245 19.591 61.2448C19.9529 61.6354 20.158 62.1432 20.158 62.7031C20.158 63.263 19.9529 63.7839 19.579 64.1875C19.2774 64.5261 18.8672 64.7344 18.4209 64.7734C18.1193 64.7604 17.8177 64.7083 17.5282 64.6432C17.2869 64.5521 17.0456 64.3828 16.8526 64.1745ZM20.9421 59.7604C20.4717 59.2656 19.9288 58.9141 19.3377 58.7318L27.1789 50.8802C27.8424 51.6485 28.723 51.7656 29.2176 51.7656H30.8824H32.5471C33.5363 51.7656 34.1757 51.349 34.5858 50.8802L42.4271 58.7318C41.836 58.9271 41.2931 59.2656 40.8226 59.7604C40.0868 60.5417 39.6887 61.5833 39.6887 62.6901C39.6887 63.4323 39.8696 64.1484 40.2074 64.7865H21.5694C21.9072 64.1615 22.0882 63.4453 22.0882 62.6901C22.0761 61.5833 21.678 60.5417 20.9421 59.7604ZM28.2164 47.7813C28.2164 46.1927 28.904 44.3438 30.8583 44.3438H30.8824H30.9065C32.8608 44.3438 33.5484 46.1927 33.5484 47.7813C33.5484 49.6823 32.897 49.6823 32.5471 49.6823H30.8824H29.2176C28.8678 49.6823 28.2164 49.6823 28.2164 47.7813ZM42.1858 64.1745C41.8239 63.7839 41.6188 63.25 41.6188 62.6901C41.6188 62.1432 41.8239 61.6224 42.1858 61.2318C42.9458 60.4245 44.1642 60.4115 44.9121 61.2188C45.6601 62.0391 45.6721 63.3542 44.9121 64.1615C44.7312 64.3568 44.502 64.513 44.2848 64.6042C43.9833 64.6953 43.6696 64.7344 43.356 64.7604C42.9096 64.7344 42.4995 64.5261 42.1858 64.1745ZM46.0582 59.5261L35.4062 48.849C35.4544 48.5235 35.4785 48.1589 35.4785 47.7682C35.4785 44.513 33.5967 42.2474 30.9065 42.2474H30.8824H30.8583C28.1681 42.2474 26.2862 44.513 26.2862 47.7682C26.2862 48.1589 26.3103 48.5235 26.3586 48.849L15.7066 59.5261C15.1637 56.8698 14.259 53.0026 12.9803 49.6432C11.3155 45.2813 9.44569 42.0651 8.49268 40.5547C9.39743 37.7682 10.266 35.2162 10.9536 33.5495C11.8101 31.4531 12.9803 28.5755 18.1555 28.5755C20.6164 28.5755 22.6069 29.1615 24.3681 29.6823C25.8881 30.125 27.3237 30.5417 28.8316 30.5417H32.9573C34.4652 30.5417 35.9008 30.125 37.4208 29.6823C39.182 29.1615 41.1725 28.5755 43.6334 28.5755C48.7966 28.5755 49.9788 31.4531 50.8353 33.5495C51.4505 35.0469 52.2708 37.4167 53.2841 40.5417C52.3311 42.0521 50.4492 45.2682 48.7845 49.6432C47.5058 53.0026 46.601 56.8698 46.0582 59.5261ZM27.0462 22.0781V28.25C26.3586 28.1068 25.6469 27.8985 24.8748 27.6641C22.9929 27.1172 20.8697 26.4922 18.1555 26.4922C13.9333 26.4922 11.7739 28.237 10.5314 30.0469C11.0863 28.0417 11.593 26.5052 11.9669 25.9453C14.5606 22.1172 20.6043 22.0781 27.0462 22.0781ZM34.7185 22.0781C41.1483 22.0781 47.2042 22.1172 49.7858 25.9453C50.1597 26.5052 50.6664 28.0156 51.2092 29.9948C49.9667 28.1979 47.8074 26.4922 43.6334 26.4922C40.9191 26.4922 38.796 27.1172 36.9141 27.6641C36.13 27.8985 35.4182 28.1068 34.7185 28.25V22.0781ZM45.7566 10.2162C48.302 13.7839 49.074 19.0573 49.2912 22.586C45.7807 20.0208 40.3884 19.9948 34.7185 19.9948V4.66929C37.6258 4.8646 42.6442 5.86721 45.7566 10.2162ZM29.3503 3.43231L29.4468 3.28908C29.7967 2.82033 30.3154 2.5469 30.8703 2.5469C31.4252 2.5469 31.944 2.82033 32.3059 3.3021L32.4024 3.43231C32.6436 3.77085 32.7884 4.20054 32.7884 4.63023V28.4583H28.9764V4.63023C28.9764 4.20054 29.1091 3.77085 29.3503 3.43231ZM16.0082 10.2162C19.1205 5.86721 24.1389 4.8646 27.0462 4.66929V19.9948C21.3764 19.9948 15.9841 20.0208 12.4736 22.586C12.6907 19.0443 13.4628 13.7839 16.0082 10.2162ZM7.69649 43.0547C8.66156 44.7214 9.98854 47.2604 11.1949 50.4375C13.0044 55.1901 14.078 61.2578 14.3314 62.7162L3.9689 55.4766C4.4635 53.7578 6.0438 48.3151 7.69649 43.0547ZM47.4334 62.7292C47.6747 61.2708 48.7483 55.2031 50.5699 50.4375C51.7883 47.2474 53.1153 44.7083 54.0803 43.0417C54.1527 43.2761 54.2251 43.5104 54.3095 43.7578C54.3095 43.7839 54.3216 43.8099 54.3216 43.8229H54.3337C55.3711 47.1432 56.5413 51.0625 57.8321 55.4896L47.4334 62.7292Z" fill="#111111"/>
</g>
<defs>
<clipPath id="clip0">
<rect width="61.7647" height="66.6667" fill="white" transform="translate(0 0.333344)"/>
</clipPath>
</defs>
</svg>
