<svg width="58" height="60" viewBox="0 0 58 60" fill="none" xmlns="http://www.w3.org/2000/svg">
<path d="M37.2852 27.5625C34.5781 27.6797 32.9961 28.1367 32.0117 29.0977C30.875 30.1875 30.875 31.5703 30.875 32.5781V32.6133C30.875 33.9727 31.0273 35.3789 32.1172 36.3984C33.0195 37.2422 34.3086 37.6172 36.3242 37.6172C36.6758 37.6172 37.0625 37.6055 37.4375 37.582C40.4492 37.418 42.5117 37.0078 43.4609 35.4844C44.0703 34.5117 44.082 33.3164 43.4961 31.9336C42.8633 30.3398 41.6563 27.3867 37.2852 27.5625ZM41.8789 34.4883C41.3281 35.3672 39.3711 35.6016 37.332 35.7188C36.9805 35.7422 36.6406 35.7539 36.3242 35.7539C34.8477 35.7539 33.9219 35.5313 33.4063 35.0508C32.9375 34.6055 32.75 33.9258 32.75 32.625V32.5781C32.75 31.6172 32.7852 30.9492 33.3125 30.4453C33.9219 29.8477 35.2109 29.5313 37.3672 29.4375C40.4258 29.3086 41.1758 31.1602 41.7852 32.6367V32.6484C42.2774 33.8438 41.9844 34.3242 41.8789 34.4883Z" fill="white"/>
<path d="M33.6875 56.3086C34.2031 56.3086 34.625 55.8867 34.625 55.3711V51.3867C34.625 50.8711 34.2031 50.4492 33.6875 50.4492C33.1719 50.4492 32.75 50.8711 32.75 51.3867V55.3711C32.75 55.8867 33.1719 56.3086 33.6875 56.3086Z" fill="white"/>
<path d="M29 56.3086C29.5156 56.3086 29.9375 55.8867 29.9375 55.3711V49.043C29.9375 48.5273 29.5156 48.1055 29 48.1055C28.4844 48.1055 28.0625 48.5273 28.0625 49.043V55.3711C28.0625 55.8867 28.4844 56.3086 29 56.3086Z" fill="white"/>
<path d="M20.7031 27.5859C16.3672 27.375 15.1367 30.3516 14.4687 31.9453L15.3359 32.3086L14.4687 31.9453C13.8945 33.3398 13.9062 34.5352 14.5039 35.4961C15.2187 36.6211 16.4726 37.3711 20.5273 37.5937C20.9375 37.6172 21.3008 37.6289 21.6523 37.6289C23.6797 37.6289 24.9687 37.2539 25.8594 36.4102C26.9492 35.3789 27.1016 33.9844 27.1016 32.625V32.5898C27.1016 31.582 27.1016 30.1992 25.9766 29.1211C24.9805 28.1602 23.3984 27.7031 20.7031 27.5859ZM25.2266 32.6367C25.2266 33.9375 25.0391 34.6172 24.5703 35.0625C24.0664 35.543 23.1406 35.7656 21.6523 35.7656C21.3477 35.7656 21.0195 35.7539 20.6445 35.7305C18.6172 35.6133 16.6601 35.3906 16.0976 34.5C16.0039 34.3477 15.7109 33.8789 16.2031 32.6602C16.8594 31.0898 17.5976 29.3086 20.6211 29.4609C22.7656 29.5547 24.0547 29.8711 24.6758 30.4805C25.1914 30.9727 25.2266 31.6172 25.2266 32.6016V32.6367Z" fill="white"/>
<path d="M24.3125 56.3086C24.8281 56.3086 25.25 55.8867 25.25 55.3711V51.3867C25.25 50.8711 24.8281 50.4492 24.3125 50.4492C23.7969 50.4492 23.375 50.8711 23.375 51.3867V55.3711C23.375 55.8867 23.7969 56.3086 24.3125 56.3086Z" fill="white"/>
<path d="M57.1133 49.582L56.9961 49.207C55.7188 45.1406 54.5704 41.5781 53.5626 38.5664C53.1172 36.4102 50.5274 24.1992 48.8868 21.9375C48.8633 21.9141 48.8516 21.8906 48.8282 21.8672C48.793 18.8086 48.3008 12.1055 44.9376 7.73437C41.2227 2.91797 35.211 2.08594 32.211 1.99219C32.129 1.86328 32.0469 1.73437 31.9532 1.61719L31.8594 1.5C31.168 0.621094 30.1251 0.117188 29.0001 0.117188C27.8751 0.117188 26.8321 0.621094 26.1524 1.5L26.0469 1.62891C25.9532 1.74609 25.8711 1.875 25.7891 2.00391C24.1368 2.05078 21.8633 2.32031 19.5313 3.16406C16.8243 4.14844 14.6563 5.69531 13.0743 7.74609C9.71099 12.1055 9.2188 18.8086 9.18365 21.8672C9.16021 21.8906 9.14849 21.9141 9.12505 21.9375C7.43755 24.2578 4.75396 37.043 4.4024 38.7187C2.59771 44.0742 0.968803 49.3477 0.89849 49.582C0.734428 50.0859 0.933646 50.6367 1.37896 50.918L13.7188 58.9102C14.668 59.5195 15.7579 59.8477 16.8946 59.8711H16.9063C16.9532 59.8711 17.0001 59.8711 17.0469 59.8711H40.9063C40.9532 59.8711 41 59.8711 41.0469 59.8711H41.0586C42.1602 59.8359 43.25 59.5078 44.2227 58.9102L56.5977 50.9062L56.6329 50.8828C57.1016 50.5898 57.2774 50.0625 57.1133 49.582ZM15.3711 57.457C15.0196 57.1055 14.8321 56.6484 14.8321 56.1445C14.8321 55.6406 15.0313 55.1719 15.3829 54.8086C16.0977 54.082 17.293 54.082 18.0313 54.8203C18.3829 55.1719 18.5821 55.6289 18.5821 56.1328C18.5821 56.6367 18.3829 57.1055 18.0196 57.4687C17.7266 57.7734 17.3282 57.9609 16.8946 57.9961C16.6016 57.9844 16.3086 57.9375 16.0274 57.8789C15.793 57.7969 15.5586 57.6445 15.3711 57.457ZM19.3438 53.4844C18.8868 53.0391 18.3594 52.7227 17.7852 52.5586L25.4024 45.4922C26.0469 46.1836 26.9024 46.2891 27.3829 46.2891H29.0001H30.6172C31.5782 46.2891 32.1993 45.9141 32.5977 45.4922L40.2149 52.5586C39.6407 52.7344 39.1133 53.0391 38.6563 53.4844C37.9415 54.1875 37.5547 55.125 37.5547 56.1211C37.5547 56.7891 37.7305 57.4336 38.0586 58.0078H19.9532C20.2813 57.4453 20.4571 56.8008 20.4571 56.1211C20.4454 55.125 20.0586 54.1875 19.3438 53.4844ZM26.4102 42.7031C26.4102 41.2734 27.0782 39.6094 28.9766 39.6094H29.0001H29.0235C30.9219 39.6094 31.5899 41.2734 31.5899 42.7031C31.5899 44.4141 30.9571 44.4141 30.6172 44.4141H29.0001H27.3829C27.043 44.4141 26.4102 44.4141 26.4102 42.7031ZM39.9805 57.457C39.629 57.1055 39.4297 56.625 39.4297 56.1211C39.4297 55.6289 39.629 55.1602 39.9805 54.8086C40.7188 54.082 41.9024 54.0703 42.629 54.7969C43.3555 55.5352 43.3672 56.7187 42.629 57.4453C42.4532 57.6211 42.2305 57.7617 42.0196 57.8437C41.7266 57.9258 41.4219 57.9609 41.1172 57.9844C40.6836 57.9609 40.2852 57.7734 39.9805 57.457ZM43.7422 53.2734L33.3946 43.6641C33.4415 43.3711 33.4649 43.043 33.4649 42.6914C33.4649 39.7617 31.6368 37.7227 29.0235 37.7227H29.0001H28.9766C26.3633 37.7227 24.5352 39.7617 24.5352 42.6914C24.5352 43.043 24.5586 43.3711 24.6055 43.6641L14.2579 53.2734C13.7305 50.8828 12.8516 47.4023 11.6094 44.3789C9.99224 40.4531 8.17583 37.5586 7.25005 36.1992C8.12896 33.6914 8.97271 31.3945 9.64068 29.8945C10.4727 28.0078 11.6094 25.418 16.6368 25.418C19.0274 25.418 20.961 25.9453 22.6719 26.4141C24.1485 26.8125 25.543 27.1875 27.0079 27.1875H31.0157C32.4805 27.1875 33.8751 26.8125 35.3516 26.4141C37.0626 25.9453 38.9961 25.418 41.3868 25.418C46.4024 25.418 47.5508 28.0078 48.3829 29.8945C48.9805 31.2422 49.7774 33.375 50.7618 36.1875C49.836 37.5469 48.0079 40.4414 46.3907 44.3789C45.1485 47.4023 44.2696 50.8828 43.7422 53.2734ZM25.2735 19.5703V25.125C24.6055 24.9961 23.9141 24.8086 23.1641 24.5977C21.336 24.1055 19.2735 23.543 16.6368 23.543C12.5352 23.543 10.4376 25.1133 9.23052 26.7422C9.76958 24.9375 10.2618 23.5547 10.6251 23.0508C13.1446 19.6055 19.0157 19.5703 25.2735 19.5703ZM32.7266 19.5703C38.9727 19.5703 44.8555 19.6055 47.3633 23.0508C47.7266 23.5547 48.2188 24.9141 48.7461 26.6953C47.5391 25.0781 45.4415 23.543 41.3868 23.543C38.7501 23.543 36.6876 24.1055 34.8594 24.5977C34.0977 24.8086 33.4063 24.9961 32.7266 25.125V19.5703ZM43.4493 8.89453C45.9219 12.1055 46.6719 16.8516 46.8829 20.0273C43.4727 17.7187 38.2344 17.6953 32.7266 17.6953V3.90234C35.5508 4.07812 40.4258 4.98047 43.4493 8.89453ZM27.5118 2.78906L27.6055 2.66016C27.9454 2.23828 28.4493 1.99219 28.9883 1.99219C29.5274 1.99219 30.0313 2.23828 30.3829 2.67187L30.4766 2.78906C30.711 3.09375 30.8516 3.48047 30.8516 3.86719V25.3125H27.1485V3.86719C27.1485 3.48047 27.2774 3.09375 27.5118 2.78906ZM14.5508 8.89453C17.5743 4.98047 22.4493 4.07812 25.2735 3.90234V17.6953C19.7657 17.6953 14.5274 17.7187 11.1172 20.0273C11.3282 16.8398 12.0782 12.1055 14.5508 8.89453ZM6.47661 38.4492C7.41411 39.9492 8.70318 42.2344 9.87505 45.0937C11.6329 49.3711 12.6758 54.832 12.9219 56.1445L2.85552 49.6289C3.33599 48.082 4.87115 43.1836 6.47661 38.4492ZM45.0782 56.1562C45.3126 54.8437 46.3555 49.3828 48.1251 45.0937C49.3086 42.2227 50.5977 39.9375 51.5352 38.4375C51.6055 38.6484 51.6758 38.8594 51.7579 39.082C51.7579 39.1055 51.7696 39.1289 51.7696 39.1406H51.7813C52.7891 42.1289 53.9258 45.6562 55.1797 49.6406L45.0782 56.1562Z" fill="white"/>
</svg>
